<?xml version="1.0" encoding="utf-8"?>
<!-- Uploaded to: SVG Repo, www.svgrepo.com, Generator: SVG Repo Mixer Tools -->
<svg width="800px" height="800px" viewBox="0 0 32 32" fill="none" xmlns="http://www.w3.org/2000/svg">
<g clip-path="url(#clip0_901_1126)">
<path d="M27 16V11C27 11 27 10 26 9L19 2C18 1 17 1 17 1M17 1H2C2 1 1 1 1 2V30C1 30 1 31 2 31H18M17 1V10C17 10 17 11 18 11H23M23 25L25 23M25 23L27 25M25 23V27M31 25C31 21.687 28.313 19 25 19C21.687 19 19 21.687 19 25C19 28.313 21.687 31 25 31C28.313 31 31 28.313 31 25Z" stroke="#000000" stroke-width="2" stroke-linecap="round" stroke-linejoin="round"/>
</g>
<defs>
<clipPath id="clip0_901_1126">
<rect width="32" height="32" fill="white"/>
</clipPath>
</defs>
</svg>